{"title":"13.2010.R5.DVDRip.Dubbed.XVID.AC3.HQ.Hive-CM8","uid":6005480,"size":1584541893,"categoryP":"video","categoryS":"movies","magnet":"?xt=urn:btih:de08aaea9eff0c99cb9c3fee7227fede15d1ed8a&amp;dn=13.2010.R5.DVDRip.Dubbed.XVID.AC3.HQ.Hive-CM8&amp;tr=udp%3A%2F%2Ftracker.openbittorrent.com%3A80&amp;tr=udp%3A%2F%2Fopen.demonii.com%3A1337&amp;tr=udp%3A%2F%2Ftracker.coppersurfer.tk%3A6969&amp;tr=udp%3A%2F%2Fexodus.desync.com%3A6969","seeders":1,"leechers":0,"uploader":"SAFCukO09","files":110,"time":1291310076,"description":"13 2010 R5 DVDRip Dubbed XVID AC3 5.1 HQ Hive-CM8\n\n\n\n\n\n\n\nThx Hive\n\n\n\nCM8 Doing It Right The First Time :D\n\n\n\nVideoSource: Russian R5\n\n13.(Chertova.djuzhina).2010.DVD-5\n\nAudioSource: Retail DVD-R (like Casino)\n\nwith English 5.1 Audio\n\n\n\nEncode:\n\nRetail has higher Resolution but lower Videoquality (720x400)\n\nR5 DVD-R Video has better quality, so i use the encode i already prepared\n\n\n\nVideo: 720x304 @bitrate 1800 2pass\n\nAudio: English AC3 5.1 @448\n\nSample: yes included\n\n\n\n\n\n\n\nGeneral\n\nComplete name : 13.2010.R5.DVDRip.Dubbed.XVID.AC3.HQ.Hive-CM8.avi\n\nFormat : AVI\n\nFormat/Info : Audio Video Interleave\n\nFile size : 1.47 GiB\n\nDuration : 1h 33mn\n\nOverall bit rate : 2 256 Kbps\n\nWriting application : Nandub v1.0rc2\n\nWriting library : Nandub build 1853/release\n\n\n\nVideo\n\nID : 0\n\nFormat : MPEG-4 Visual\n\nFormat profile : Advanced Simple@L5\n\nFormat settings, BVOP : Yes\n\nFormat settings, QPel : Yes\n\nFormat settings, GMC : No warppoints\n\nFormat settings, Matrix : Default (H.263)\n\nMuxing mode : Packed bitstream\n\nCodec ID : XVID\n\nCodec ID/Hint : XviD\n\nDuration : 1h 33mn\n\nBit rate : 1 799 Kbps\n\nWidth : 720 pixels\n\nHeight : 304 pixels\n\nDisplay aspect ratio : 2.35:1\n\nFrame rate : 25.000 fps\n\nColor space : YUV\n\nChroma subsampling : 4:2:0\n\nBit depth : 8 bits\n\nScan type : Progressive\n\nBits/(Pixel*Frame) : 0.329\n\nStream size : 1.17 GiB (80%)\n\nWriting library : XviD 1.2.1 (UTC 2008-12-04)\n\n\n\nAudio\n\nID : 1\n\nFormat : AC-3\n\nFormat/Info : Audio Coding 3\n\nMode extension : CM (complete main)\n\nCodec ID : 2000\n\nDuration : 1h 33mn\n\nBit rate mode : Constant\n\nBit rate : 448 Kbps\n\nChannel(s) : 6 channels\n\nChannel positions : Front: L C R, Side: L R, LFE\n\nSampling rate : 48.0 KHz\n\nBit depth : 16 bits\n\nStream size : 299 MiB (20%)\n\nAlignment : Split accross interleaves\n\nInterleave, duration : 40 ms (1.00 video frame)\n\nInterleave, preload duration : 500 ms\n\n\n\n\n\nJason Statham - Jasper\n\nMickey Rourke - Jefferson\n\nEmmanuelle Chriqui - Aileen\n\nMichael Shannon - Henry\n\nAlexander SkarsgÃƒÆ’Ã‚Â¥rd - Jack\n\nDavid Zayas - Detective Larry Mullane\n\nRay Winstone - Ronald Lynn\n\nGaby Hoffmann - Clara\n\nSam Riley - Vince\n\n50 Cent - Jimmy\n\n\n\nA naive young man assumes a dead man's identity and finds himself\n\nembroiled in an underground world of power, violence, and chance\n\nwhere men gamble behind closed doors on the lives of other men. ","torrent":{"xt":"urn:btih:de08aaea9eff0c99cb9c3fee7227fede15d1ed8a","amp;dn":"13.2010.R5.DVDRip.Dubbed.XVID.AC3.HQ.Hive-CM8","amp;tr":["udp%3A%2F%2Ftracker.openbittorrent.com%3A80","udp%3A%2F%2Fopen.demonii.com%3A1337","udp%3A%2F%2Ftracker.coppersurfer.tk%3A6969","udp%3A%2F%2Fexodus.desync.com%3A6969"],"infoHash":"de08aaea9eff0c99cb9c3fee7227fede15d1ed8a","infoHashBuffer":{"type":"Buffer","data":[222,8,170,234,158,255,12,153,203,156,63,238,114,39,254,222,21,209,237,138]},"announce":[],"urlList":[]}}